<?xml version="1.0" encoding="UTF-8" standalone="no"?>
<!-- Created with Inkscape (http://www.inkscape.org/) -->

<svg
   width="180.62222mm"
   height="180.62222mm"
   viewBox="0 0 180.62222 180.62222"
   version="1.1"
   id="svg1"
   xml:space="preserve"
   inkscape:version="1.4.2 (ebf0e940, 2025-05-08)"
   sodipodi:docname="8orchids.svg"
   xmlns:inkscape="http://www.inkscape.org/namespaces/inkscape"
   xmlns:sodipodi="http://sodipodi.sourceforge.net/DTD/sodipodi-0.dtd"
   xmlns="http://www.w3.org/2000/svg"
   xmlns:svg="http://www.w3.org/2000/svg"><sodipodi:namedview
     id="namedview1"
     pagecolor="#ffffff"
     bordercolor="#000000"
     borderopacity="0.25"
     inkscape:showpageshadow="2"
     inkscape:pageopacity="0.0"
     inkscape:pagecheckerboard="0"
     inkscape:deskcolor="#d1d1d1"
     inkscape:document-units="mm"
     inkscape:zoom="0.52410024"
     inkscape:cx="358.71"
     inkscape:cy="365.38811"
     inkscape:window-width="1352"
     inkscape:window-height="890"
     inkscape:window-x="221"
     inkscape:window-y="44"
     inkscape:window-maximized="0"
     inkscape:current-layer="layer1" /><defs
     id="defs1" /><g
     inkscape:label="Layer 1"
     inkscape:groupmode="layer"
     id="layer1"
     transform="translate(-11.702229,-49.963642)"><path
       style="fill:#ffffff"
       d="m 44.157784,229.07857 c -1.395296,-0.69382 -2.19311,-2.76256 -2.326105,-6.03161 -0.168045,-4.13061 -0.73085,-8.59752 -1.329997,-10.55601 -0.759036,-2.48113 -3.256822,-5.20537 -6.309939,-6.882 -2.882316,-1.58285 -3.383125,-2.05701 -4.545529,-4.30364 -0.726748,-1.40462 -0.849637,-2.27837 -1.066764,-7.58472 -0.134968,-3.29848 -0.359905,-8.63485 -0.499861,-11.85862 -0.261012,-6.01216 -0.05789,-7.83912 1.446721,-13.01222 0.253951,-0.87312 0.65746,-2.46062 0.896688,-3.52777 0.675267,-3.01225 3.025751,-8.56192 3.973751,-9.38232 0.469829,-0.40659 1.862173,-0.93756 3.094097,-1.17992 1.231923,-0.24237 2.832754,-0.74314 3.557401,-1.11283 1.822431,-0.92973 3.957524,-0.8635 5.724376,0.17756 1.473938,0.86848 4.316698,3.91607 5.130604,5.50028 0.24921,0.48507 0.913088,1.36862 1.475284,1.96345 0.736915,0.77968 1.126688,1.67482 1.396673,3.20755 0.343986,1.95284 0.301061,2.30053 -0.526854,4.26757 -1.483523,3.52469 -2.987858,8.34282 -3.389169,10.85493 -0.207365,1.29805 -0.621903,3.49397 -0.921194,4.87983 -0.299292,1.38585 -0.685687,4.5041 -0.858655,6.92945 -0.172968,2.42535 -0.420509,5.62713 -0.550091,7.11507 -0.348084,3.99691 0.08074,4.56186 1.159829,1.52799 0.483083,-1.3582 1.00107,-3.02507 1.151084,-3.70417 0.299138,-1.35417 1.011486,-3.61652 2.499281,-7.9375 1.911352,-5.5511 2.477095,-7.02905 2.990717,-7.81293 0.537432,-0.82023 2.450287,-1.53026 4.131865,-1.53371 1.202875,-0.002 3.294481,2.00853 3.617184,3.47778 0.34537,1.57246 2.130204,4.06524 3.679433,5.13885 0.753727,0.52234 2.697195,1.42884 4.318819,2.01445 2.670179,0.96428 3.206295,1.04318 5.68127,0.83615 3.777537,-0.31598 4.146304,-0.15528 4.146304,1.80693 0,2.10119 -0.432412,2.80959 -2.025764,3.31873 -0.729094,0.23297 -1.744455,0.81402 -2.256357,1.29122 -1.050916,0.97967 -2.243853,4.33345 -1.946231,5.47156 0.197883,0.75671 -0.163753,2.66382 -1.051433,5.54479 -0.264729,0.85918 -0.484003,1.89105 -0.487274,2.29305 -0.01131,1.39023 -3.005127,7.22329 -4.736844,9.22913 l -1.723226,1.99601 -2.2464,-0.18032 c -3.506996,-0.28151 -4.595952,0.10855 -6.760117,2.42147 -1.039825,1.11129 -2.053198,2.48699 -2.251941,3.0571 -0.360036,1.0328 -0.369203,1.03573 -2.519541,0.80545 -2.160651,-0.23138 -2.81289,-0.0798 -6.091243,1.41578 -1.35767,0.61936 -2.486129,0.63733 -3.650852,0.0582 z M 158.2814,219.41368 c -0.38806,-0.0848 -2.61056,-0.62125 -4.93889,-1.19204 -2.32834,-0.57079 -6.05896,-1.19297 -8.29028,-1.38263 -4.896,-0.41615 -5.95052,-0.69804 -8.61629,-2.30329 -4.00496,-2.41166 -6.52039,-4.43425 -8.10329,-6.51562 -1.61447,-2.12289 -3.38875,-5.28614 -3.38875,-6.04159 0,-0.22472 -0.38124,-1.30156 -0.8472,-2.39298 -0.46596,-1.09141 -1.19761,-2.89433 -1.62589,-4.00649 -1.28017,-3.32436 -3.63171,-5.05397 -9.16858,-6.74369 -2.95934,-0.90313 -6.5537,-2.95884 -6.9418,-3.9702 -0.32323,-0.84233 0.86254,-3.4528 2.09547,-4.61318 0.62819,-0.59123 2.44521,-2.05706 4.03783,-3.25741 3.54656,-2.67303 5.71578,-5.34107 7.02342,-8.63846 0.85234,-2.14931 0.99505,-3.00798 1.0052,-6.04798 0.0139,-4.17791 0.47605,-5.22974 2.46121,-5.60216 1.72193,-0.32304 3.33145,0.0292 7.252,1.58689 4.70476,1.86931 8.78269,4.42055 12.79697,8.00605 4.98874,4.45587 8.546,8.47213 11.94559,13.48696 4.17495,6.15858 6.37234,9.82878 8.23729,13.75834 0.69063,1.45521 1.71375,3.51896 2.2736,4.58611 0.55985,1.06715 1.82623,4.33379 2.81418,7.2592 2.15988,6.39562 2.35394,8.69999 0.89388,10.61423 -1.9292,2.52931 -7.28723,4.2031 -10.91567,3.40994 z m 14.34884,-12.5664 c -0.2078,-0.25038 -0.78017,-2.15806 -1.27193,-4.23927 -0.49176,-2.08122 -1.11174,-4.21792 -1.37774,-4.74823 -0.26599,-0.5303 -0.67622,-1.75794 -0.91162,-2.72808 -0.84016,-3.4626 -5.03058,-11.32698 -7.80086,-14.64028 -0.89225,-1.06715 -1.9703,-2.51681 -2.39567,-3.22147 -1.0709,-1.77406 -9.64155,-10.02663 -12.99615,-12.51385 -6.37052,-4.7233 -12.73095,-8.46951 -17.85053,-10.51372 -2.10078,-0.83883 -2.07462,-1.48239 0.14425,-3.54771 2.31636,-2.15607 6.92095,-4.57538 10.14123,-5.32833 3.61152,-0.84443 9.86346,-0.18518 15.20768,1.60361 5.30078,1.77426 6.29278,1.92056 8.52591,1.25739 4.08943,-1.21443 6.24932,-0.46372 10.64956,3.70148 3.35857,3.17916 5.87175,6.89429 5.87175,8.67996 0,0.58663 -0.32903,2.11485 -0.73119,3.39605 -0.58335,1.85849 -0.69934,2.95818 -0.57367,5.43927 0.14586,2.8799 1.17395,8.21541 1.76832,9.17712 0.14082,0.22785 0.73295,2.01963 1.31585,3.98173 0.91213,3.07036 1.06435,4.17088 1.0924,7.89805 0.0243,3.22294 -0.10365,4.59456 -0.50009,5.3626 -0.29298,0.56759 -1.02225,2.30199 -1.6206,3.85421 -0.8913,2.31219 -1.50586,3.25256 -3.40064,5.20347 -1.27201,1.30969 -2.44677,2.38125 -2.61059,2.38125 -0.16381,0 -0.46786,-0.20486 -0.67567,-0.45525 z M 74.069959,187.45664 c -1.571113,-0.95116 -2.891656,-2.62527 -3.998077,-5.06851 -1.025784,-2.26518 -2.120903,-3.13265 -5.095254,-4.03608 -2.335942,-0.70952 -3.945971,-1.8398 -5.074838,-3.56267 -0.854932,-1.30479 -0.852798,-4.93858 0.0043,-7.35074 0.95214,-2.67958 0.609529,-4.92346 -1.017719,-6.6654 -2.489392,-2.66484 -3.903711,-7.07348 -3.05253,-9.51518 0.503754,-1.44507 2.635247,-3.0258 5.011548,-3.71661 2.846626,-0.82754 3.55902,-1.62213 3.312446,-3.69466 -0.106774,-0.89747 -0.602795,-2.88233 -1.102269,-4.41082 -1.030473,-3.15344 -1.13763,-5.12482 -0.393248,-7.23463 0.578819,-1.64055 2.200001,-4.11526 4.00403,-6.11211 l 1.20763,-1.3367 h 2.934595 c 1.614027,0 3.369354,0.1653 3.900726,0.36732 1.265112,0.481 2.607578,1.95163 2.607578,2.85654 0,0.39493 0.638933,2.56606 1.41985,4.82474 0.970753,2.80774 1.751836,4.4492 2.469445,5.18958 1.187244,1.22493 1.312523,2.27416 0.502901,4.21185 -0.627965,1.50294 -0.887211,7.27974 -0.335251,7.47045 0.194028,0.067 0.618598,-0.31358 0.94349,-0.84582 0.324893,-0.53224 1.082323,-1.76146 1.68318,-2.7316 l 1.092466,-1.76389 -0.214511,1.94028 c -0.117981,1.06715 -0.3869,2.4959 -0.597597,3.175 -0.533291,1.71884 -0.421367,6.21157 0.202135,8.11388 0.502251,1.53238 0.532196,1.55688 0.862357,0.70556 0.18812,-0.48507 0.449662,-1.61524 0.581203,-2.51149 0.131541,-0.89624 0.629429,-2.70548 1.106416,-4.02053 0.476987,-1.31505 0.86725,-2.59157 0.86725,-2.83672 0,-0.93821 1.858896,-3.26248 2.772913,-3.4671 1.088463,-0.24368 2.091964,-1.06276 2.969058,-2.42341 0.607801,-0.94289 0.696843,-0.96552 2.998466,-0.7622 3.006859,0.26563 4.352592,-0.27569 6.756522,-2.71784 2.26117,-2.29712 2.34183,-2.89715 0.28984,-2.15637 -2.01104,0.72599 -10.093479,0.64936 -13.077978,-0.124 -4.827215,-1.25086 -9.195888,-4.4594 -10.760755,-7.90317 -0.747456,-1.64491 -0.879977,-2.4457 -0.858367,-5.18691 0.03627,-4.60088 0.658859,-5.48891 4.766383,-6.79859 0.728276,-0.2322 1.775807,-0.32299 2.327846,-0.20174 1.968267,0.4323 4.647792,4.08186 6.372121,8.67893 0.959307,2.55752 1.497094,3.40267 3.492406,5.48843 2.551582,2.66724 5.416754,4.36493 7.366644,4.36493 1.32927,0 1.51827,-0.49191 0.41571,-1.08198 -3.22141,-1.72405 -6.292067,-5.61006 -6.301395,-7.97462 -0.0054,-1.36222 1.847958,-3.93497 3.360315,-4.66472 0.57475,-0.27732 1.32065,-0.63723 1.65757,-0.79979 0.85533,-0.41268 2.29644,-0.36833 3.16678,0.0975 1.31532,0.70393 3.01605,2.65585 3.25263,3.73302 0.12721,0.57916 0.85676,1.66378 1.62123,2.41027 2.07191,2.02316 2.46956,3.84251 2.62192,11.99583 0.10382,5.55597 0.21447,5.9077 2.80799,8.92598 1.91955,2.23392 2.15039,2.92961 2.12643,6.40854 -0.0171,2.4768 -0.0984,2.75041 -1.27265,4.28269 -0.68993,0.90028 -1.62104,2.3942 -2.06913,3.31983 -0.758,1.5658 -0.78474,1.82812 -0.38409,3.76785 0.40852,1.97787 0.38611,2.16056 -0.43671,3.55934 -1.63652,2.78206 -3.32838,3.73774 -6.65484,3.7591 -2.11126,0.0136 -4.85933,2.84796 -4.86515,5.01798 -10e-4,0.4462 -0.22194,1.23248 -0.49055,1.7473 -0.26861,0.51482 -0.6811,1.5467 -0.91665,2.29306 -1.001469,3.17325 -3.099093,5.06119 -5.623322,5.06119 -0.522122,0 -2.34933,-0.71438 -4.060462,-1.5875 -4.18193,-2.13388 -6.473859,-2.0437 -8.662392,0.34083 -1.35283,1.47398 -2.581596,1.95239 -5.009564,1.95041 -1.677542,-0.001 -2.543211,-0.19604 -3.531039,-0.79408 z m -35.674026,-38.2214 c -0.808551,-0.22362 -2.422593,-0.73896 -3.58676,-1.1452 -1.164167,-0.40624 -3.276173,-0.91807 -4.693347,-1.13739 -3.694441,-0.57177 -4.97646,-1.65549 -7.273804,-6.14873 -2.926495,-5.72376 -4.064567,-12.20259 -2.8575,-16.26723 0.5457,-1.83757 1.489109,-2.94404 6.995441,-8.20454 3.061875,-2.92517 4.571129,-4.71841 5.954666,-7.07509 1.731254,-2.94898 3.359063,-6.18332 3.80693,-7.56411 0.265082,-0.81726 1.268619,-2.190035 2.504278,-3.425694 1.645578,-1.645578 2.474345,-2.18318 4.104303,-2.66237 2.137768,-0.628479 6.32443,-0.775665 11.63212,-0.408937 1.587837,0.109709 4.048462,0.06205 5.468056,-0.105904 8.758515,-1.036246 9.347916,-1.062014 11.938128,-0.52194 2.348228,0.48962 2.721316,0.701271 5.148515,2.920732 8.822324,8.067243 12.25703,10.847123 16.69146,13.509243 5.718828,3.43317 5.953601,3.50779 11.360241,3.61061 4.08667,0.0777 4.84212,0.003 5.66928,-0.55789 1.29442,-0.87835 2.4725,-2.99809 3.6594,-6.58438 1.75965,-5.31689 5.21973,-9.50358 9.52089,-11.520233 1.08513,-0.508778 1.59723,-1.082779 2.34924,-2.633195 1.07646,-2.219342 4.57917,-5.714606 6.60698,-6.592928 1.42216,-0.615995 5.27821,-0.700459 11.70428,-0.256375 3.44275,0.237917 4.37997,0.188268 5.82084,-0.308357 3.25029,-1.120282 5.59437,-1.100992 9.01123,0.07415 5.1841,1.782946 6.29379,3.121744 7.01941,8.468628 0.20258,1.492777 0.44095,3.069396 0.52971,3.503599 0.20203,0.988348 2.20229,2.029761 4.55981,2.374001 2.06164,0.30105 2.81172,0.64347 4.17663,1.90673 1.81201,1.67706 2.073,2.57264 1.79295,6.15256 -0.13883,1.7747 -0.47988,3.77111 -0.75789,4.43647 -0.76192,1.82353 -0.2973,4.90681 1.04471,6.93288 1.04144,1.57229 1.07239,1.73641 1.01622,5.38979 -0.0671,4.36284 -0.56435,6.55891 -2.14062,9.45338 -2.16018,3.9667 -5.07531,6.11887 -9.91704,7.32151 -2.87205,0.71339 -8.17517,0.72981 -11.26635,0.0349 -3.44227,-0.77385 -10.05474,-1.04903 -13.29157,-0.55312 -6.61628,1.01365 -8.28882,1.486 -11.22673,3.17057 -6.12247,3.51056 -9.60035,3.97306 -12.61068,1.67701 -2.87968,-2.19641 -4.01432,-5.47964 -2.75009,-7.95775 1.08876,-2.13415 7.45057,-8.56669 11.30407,-11.42976 1.84326,-1.36951 3.90139,-2.89695 4.57361,-3.39431 0.67222,-0.49736 1.86285,-1.23336 2.64583,-1.63554 0.78299,-0.40219 2.44751,-1.3243 3.69893,-2.04914 2.97043,-1.72051 9.18041,-3.7108 12.82425,-4.11015 4.18564,-0.45873 10.36433,-1.32925 12.49036,-1.75979 1.96427,-0.39778 6.93773,-2.52482 7.3093,-3.12602 0.12314,-0.19926 1.01276,-0.79164 1.97692,-1.3164 1.7753,-0.96624 2.22041,-1.54753 1.18497,-1.54753 -0.31242,0 -2.33648,0.53339 -4.49791,1.18532 -5.86531,1.76909 -7.84405,2.06876 -15.57154,2.3582 -3.88055,0.14536 -7.76993,0.44454 -8.64305,0.66486 -9.97123,2.51602 -21.23672,9.40353 -26.81493,16.39415 -0.86688,1.08638 -1.65722,1.97416 -1.75631,1.97283 -0.41728,-0.006 -1.79459,-2.44442 -2.26707,-4.01434 -0.91015,-3.02419 -4.03146,-7.09486 -7.01089,-9.14326 -2.49541,-1.71564 -4.29725,-2.08441 -6.87364,-1.40682 -2.132357,0.56082 -6.600173,0.42182 -8.957322,-0.27866 -3.959878,-1.17679 -9.430193,-2.43783 -10.503961,-2.42143 -2.027908,0.031 -4.085553,1.07745 -5.504677,2.79956 -1.5531,1.8847 -6.127585,5.15519 -7.898895,5.64725 -1.850484,0.51406 -7.292233,0.41945 -9.724809,-0.16908 -1.164166,-0.28165 -5.287753,-1.54931 -9.163525,-2.81701 -3.875773,-1.2677 -7.218023,-2.30491 -7.427224,-2.30491 -0.36353,0 -6.727363,-2.09383 -8.015501,-2.63726 -0.375439,-0.15839 -0.617361,-0.10567 -0.617361,0.13452 0,0.41191 3.604233,2.14996 4.458406,2.14996 0.269531,0 0.765715,0.15028 1.102631,0.33396 0.336916,0.18368 1.485699,0.59342 2.552852,0.91053 1.067153,0.31712 4.480278,1.84266 7.584722,3.39009 4.786482,2.38585 6.127049,2.89524 8.819445,3.35123 1.74625,0.29575 3.293111,0.65098 3.43747,0.7894 0.144358,0.13842 -0.295232,1.30196 -0.976867,2.58564 -1.036244,1.95148 -1.307715,2.94586 -1.656605,6.06799 -0.399777,3.57751 -0.384707,3.80106 0.359506,5.33287 0.427225,0.87936 0.776774,1.88095 0.776774,2.22575 0,1.40121 -3.984256,4.34845 -8.637038,6.389 -2.964077,1.29995 -3.772479,1.49659 -7.085001,1.72344 -2.500542,0.17124 -4.226141,0.12138 -5.209257,-0.15052 z m 66.051737,-37.74491 c -4.09406,-0.98329 -8.546646,-4.28057 -12.952908,-9.59201 -2.840263,-3.423741 -5.329478,-5.547324 -9.609799,-8.198254 -5.446342,-3.37308 -6.247556,-3.644806 -9.903741,-3.358788 -2.983164,0.233369 -3.144595,0.208278 -3.969909,-0.617037 -1.848809,-1.848808 -2.808522,-5.144748 -2.692057,-9.245321 0.20176,-7.10373 0.481026,-8.561306 2.410825,-12.582854 1.439406,-2.999608 1.529587,-3.100589 4.734336,-5.301331 2.690703,-1.847741 8.144625,-4.517204 9.229001,-4.517204 0.148079,0 0.941915,-0.551211 1.764079,-1.224913 0.822165,-0.673702 1.960874,-1.427764 2.530466,-1.675694 0.569592,-0.24793 1.954542,-1.066078 3.077667,-1.818107 1.732748,-1.160223 2.24719,-1.339809 3.396447,-1.185661 4.833011,0.648243 5.343056,2.598839 5.095321,19.48632 -0.158641,10.814112 0.03252,14.054336 1.259177,21.343055 0.875244,5.200663 4.056035,12.868439 6.256075,15.081249 1.03368,1.03968 2.15854,1.0343 2.42104,-0.0116 0.22145,-0.88237 -0.35082,-4.99733 -0.89349,-6.42466 -0.18773,-0.49377 -0.58431,-1.966208 -0.8813,-3.272089 -0.29698,-1.305881 -1.07949,-3.882454 -1.73889,-5.725718 -0.65941,-1.843264 -1.52698,-4.938889 -1.92795,-6.879166 -0.80187,-3.880295 -2.138218,-16.339315 -2.185155,-20.372588 -0.01637,-1.406883 -0.170754,-3.431093 -0.34307,-4.498246 C 99.351519,59.8326 99.071593,58.08635 98.901778,57.019198 98.731962,55.952045 98.41616,54.647977 98.199994,54.12127 c -0.446168,-1.087132 -0.463648,-1.068582 2.163436,-2.295859 1.47634,-0.689693 1.91419,-0.747198 3.30906,-0.4346 0.94539,0.211866 2.2024,0.8694 3.05157,1.596256 1.72703,1.47828 2.54486,1.720836 4.87262,1.445148 1.54181,-0.182604 2.16941,-0.03024 4.99759,1.213283 1.77889,0.782162 3.5823,1.591854 4.00758,1.799315 1.47776,0.720889 6.48346,5.464453 8.07602,7.653092 0.88114,1.21094 2.77654,3.368581 4.212,4.794758 1.43546,1.426177 2.7163,3.01684 2.8463,3.534807 0.799,3.183456 -3.60906,8.333672 -10.07128,11.766933 -2.87647,1.528212 -2.90985,1.56189 -4.19153,4.22774 -1.00593,2.092312 -1.62549,2.909509 -2.79846,3.691135 -0.82857,0.552133 -1.82352,1.625297 -2.21099,2.38481 -1.00609,1.97209 -2.1923,7.232472 -1.9153,8.493622 0.32713,1.48943 -1.03898,4.7336 -2.7473,6.52411 -1.31591,1.37923 -1.50743,1.46154 -3.38652,1.45543 -1.09545,-0.004 -2.88065,-0.21997 -3.96712,-0.48092 z"
       id="path1" /></g></svg>
